<svg width="25" height="25" viewBox="0 0 25 25" fill="none" xmlns="http://www.w3.org/2000/svg">
<g clip-path="url(#clip0_2_1224)">
<path d="M12.0172 4.26829H8.35868V2.43902H8.96844C9.63917 2.43902 10.1879 1.89024 10.1879 1.21951C10.1879 0.54878 9.63917 0 8.96844 0H5.3099C4.63917 0 4.09039 0.54878 4.09039 1.21951C4.09039 1.89024 4.63917 2.43902 5.3099 2.43902H5.91966V4.26829H2.26113C1.5904 4.26829 1.04162 4.81707 1.04162 5.4878C1.04162 6.15853 1.5904 6.70731 2.26113 6.70731V15.8536C2.26113 17.1951 3.35869 18.2927 4.70015 18.2927H5.91966V23.1707L8.35868 25V18.2927H9.57819C10.9197 18.2927 12.0172 17.1951 12.0172 15.8536V6.70731C12.6879 6.70731 13.2367 6.15853 13.2367 5.4878C13.2367 4.81707 12.6879 4.26829 12.0172 4.26829ZM9.57819 8.53658H7.44405C6.94405 8.53658 6.52941 8.95121 6.52941 9.45121C6.52941 9.95121 6.94405 10.3658 7.44405 10.3658H9.57819V12.1951H7.44405C6.94405 12.1951 6.52941 12.6097 6.52941 13.1097C6.52941 13.6097 6.94405 14.0244 7.44405 14.0244H9.57819V15.8536H4.70015V6.70731H9.57819V8.53658ZM22.3831 10.3658V9.75609C23.0538 9.75609 23.6026 9.20731 23.6026 8.53658C23.6026 7.86585 23.0538 7.31706 22.3831 7.31706H16.2855C15.6148 7.31706 15.066 7.86585 15.066 8.53658C15.066 9.20731 15.6148 9.75609 16.2855 9.75609V10.3658C16.2855 10.9756 14.4562 11.7805 14.4562 14.0244V21.9512C14.4562 23.2927 15.5538 24.3902 16.8953 24.3902H21.7733C23.1148 24.3902 24.2123 23.2927 24.2123 21.9512V14.0244C24.2123 11.7805 22.3831 10.9756 22.3831 10.3658ZM18.7245 10.3658V9.75609H19.944V10.3658C19.944 12.3171 21.7733 12.8049 21.7733 14.0244V14.6341H16.8953C16.8953 14.378 16.8953 14.1585 16.8953 14.0244C16.8953 12.8049 18.7245 12.3171 18.7245 10.3658ZM16.8953 21.9512C16.8953 21.9512 16.8953 21.1829 16.8953 20.1219H21.7733V21.9512H16.8953Z" fill="#009DC7"/>
</g>
<defs>
<clipPath id="clip0_2_1224">
<rect width="24.8889" height="24.8889" fill="white" transform="scale(1.00446)"/>
</clipPath>
</defs>
</svg>
