<svg width="25" height="25" viewBox="0 0 25 25" fill="none" xmlns="http://www.w3.org/2000/svg">
<path fill-rule="evenodd" clip-rule="evenodd" d="M15.53 1.62479C16.5704 0.584452 17.9814 0 19.4526 0C22.5163 0 25 2.48364 25 5.54738C25 7.01863 24.4155 8.42963 23.3752 9.46996L18.0892 14.7559L16.9107 13.5774L22.1967 8.29145C22.9245 7.56368 23.3333 6.5766 23.3333 5.54738C23.3333 3.40412 21.5959 1.66667 19.4526 1.66667C18.4234 1.66667 17.4363 2.07552 16.7085 2.8033L11.4226 8.08925L10.2441 6.91074L15.53 1.62479ZM18.0892 8.08925L8.08925 18.0892L6.91074 16.9107L16.9107 6.91074L18.0892 8.08925ZM8.08925 11.4226L2.8033 16.7085C2.07552 17.4363 1.66667 18.4234 1.66667 19.4526C1.66667 21.5959 3.40412 23.3333 5.54737 23.3333C6.5766 23.3333 7.56367 22.9245 8.29145 22.1967L13.5774 16.9107L14.7559 18.0892L9.46996 23.3752C8.42962 24.4155 7.01863 25 5.54737 25C2.48364 25 0 22.5163 0 19.4526C0 17.9814 0.584454 16.5704 1.62479 15.53L6.91074 10.2441L8.08925 11.4226Z" fill="#1C6BA4"/>
</svg>
