<svg width="12" height="12" viewBox="0 0 12 12" fill="none" xmlns="http://www.w3.org/2000/svg">
<path d="M6.35869 0.622998C6.29131 0.486463 6.15225 0.400023 6 0.400023C5.84774 0.400023 5.70869 0.486463 5.6413 0.622998L4.0038 3.94098L0.342527 4.47266C0.191845 4.49454 0.0666531 4.60008 0.0195947 4.74488C-0.0274638 4.88969 0.0117729 5.04866 0.120806 5.15494L2.77021 7.73748L2.1446 11.3845C2.11886 11.5345 2.18054 11.6862 2.30373 11.7757C2.42691 11.8652 2.59022 11.877 2.72498 11.8062L6 10.0843L9.27501 11.8062C9.40978 11.877 9.57309 11.8652 9.69627 11.7757C9.81945 11.6862 9.88114 11.5345 9.85539 11.3845L9.22978 7.73748L11.8792 5.15494C11.9882 5.04866 12.0275 4.88969 11.9804 4.74488C11.9333 4.60008 11.8081 4.49454 11.6575 4.47266L7.99619 3.94098L6.35869 0.622998Z" fill="#1D1929"/>
</svg>
