<svg width="25" height="25" viewBox="0 0 25 25" fill="none" xmlns="http://www.w3.org/2000/svg">
<g clip-path="url(#clip0_2_1215)">
<path d="M12.2098 2.08335H23.3174V5.88208H12.2098V2.08335Z" fill="#E09F1F"/>
<path d="M1.15033 15.1623C-0.244087 16.5568 -0.388351 18.8169 0.813708 20.3556L6.34359 14.8257C4.80474 13.6236 2.54487 13.7679 1.15037 15.1623L1.15033 15.1623Z" fill="#E09F1F"/>
<path d="M1.5349 21.0766C3.07358 22.2787 5.28549 22.1344 6.72813 20.74C8.12255 19.3456 8.26681 17.0855 7.06475 15.5467L1.5349 21.0766Z" fill="#E09F1F"/>
<path d="M6.34325 4.199C4.80456 2.99693 2.54469 3.14119 1.15045 4.53562C-0.243965 5.93004 -0.38823 8.19013 0.813833 9.72886L6.34325 4.199Z" fill="#E09F1F"/>
<path d="M1.5349 10.4499C3.07358 11.652 5.28549 11.5077 6.72813 10.1133C8.12255 8.71888 8.26681 6.45878 7.06475 4.92005L1.5349 10.4499Z" fill="#E09F1F"/>
<path d="M18.4608 14.6815V12.662H17.1145V14.7297C17.1145 15.0181 16.8741 15.2587 16.5855 15.2587H14.5178V16.605H16.5855C16.8739 16.605 17.1145 16.8453 17.1145 17.134V19.2017H18.4608V17.134C18.4608 16.8455 18.7011 16.605 18.9898 16.605H21.0575V15.2587H18.9898C18.7011 15.2105 18.4608 14.97 18.4608 14.6815V14.6815Z" fill="#E09F1F"/>
<path d="M24.1827 9.58476C23.2691 8.95966 22.644 8.04608 22.4034 6.94014H13.1712C12.9308 7.99794 12.2576 8.95966 11.3919 9.58476C10.8629 9.92138 10.5745 10.4983 10.5745 11.1234V21.3653C10.5745 22.4231 11.4399 23.2406 12.4498 23.2406H23.1247C24.1825 23.2406 25 22.3751 25 21.3653V11.1234C25 10.4983 24.7115 9.92137 24.1825 9.58476H24.1827ZM22.067 17.086C22.067 17.3744 21.8267 17.615 21.538 17.615H19.4703V19.6827C19.4703 19.9711 19.23 20.2117 18.9413 20.2117H16.537C16.2485 20.2117 16.008 19.9713 16.008 19.6827V17.615H13.9403C13.6518 17.615 13.4112 17.3746 13.4112 17.086V14.6816C13.4112 14.3932 13.6516 14.1526 13.9403 14.1526H16.008V12.0849C16.008 11.7965 16.2483 11.5559 16.537 11.5559H18.9413C19.2298 11.5559 19.4703 11.7963 19.4703 12.0849V14.1526H21.538C21.8265 14.1526 22.067 14.393 22.067 14.6816V17.086Z" fill="#E09F1F"/>
</g>
<defs>
<clipPath id="clip0_2_1215">
<rect width="24.8889" height="24.8889" fill="white" transform="scale(1.00446)"/>
</clipPath>
</defs>
</svg>
