<svg width="15" height="22" viewBox="0 0 15 22" fill="none" xmlns="http://www.w3.org/2000/svg">
<path d="M7.39385 0C7.39385 0 0 10.3865 0 14.518C0 18.6495 3.35009 22 7.48198 22C11.6139 22.0002 14.964 18.6501 14.964 14.518C14.964 10.3859 7.39332 0 7.39332 0H7.39385ZM4.79408 19.9014C4.70678 20.0181 4.5726 20.0801 4.43697 20.0801C4.34385 20.0801 4.24991 20.0513 4.17007 19.9911C2.28659 18.5805 1.46805 15.9861 1.43429 15.8765C1.3617 15.6413 1.49339 15.3918 1.72836 15.319C1.96498 15.2452 2.21322 15.3779 2.28644 15.6127C2.2939 15.6371 3.05667 18.0426 4.70495 19.2773C4.90176 19.4248 4.94199 19.7041 4.79413 19.9013L4.79408 19.9014ZM6.48946 20.8732C6.47909 20.8732 6.46893 20.873 6.45856 20.8723C6.11492 20.8485 5.77502 20.7813 5.44842 20.672C5.21511 20.5938 5.08902 20.341 5.1672 20.1077C5.24601 19.874 5.4986 19.7489 5.73171 19.8265C5.98658 19.9117 6.25162 19.9644 6.51956 19.9829C6.76511 19.9999 6.95071 20.2126 6.93392 20.4582C6.91795 20.6932 6.72156 20.8732 6.48949 20.8732L6.48946 20.8732Z" fill="#9D4C6C"/>
</svg>
