<svg width="20" height="20" viewBox="0 0 20 20" fill="none" xmlns="http://www.w3.org/2000/svg">
<path d="M10 3.99996C9.63185 3.99996 9.33337 3.70148 9.33337 3.33329C9.33337 2.9651 9.63185 2.66663 10 2.66663C10.3682 2.66663 10.6667 2.9651 10.6667 3.33329C10.6667 3.70148 10.3682 3.99996 10 3.99996Z" stroke="#4A545E" stroke-width="1.5"/>
<path d="M10 10.6666C9.63185 10.6666 9.33337 10.3681 9.33337 9.99996C9.33337 9.63177 9.63185 9.33329 10 9.33329C10.3682 9.33329 10.6667 9.63177 10.6667 9.99996C10.6667 10.3681 10.3682 10.6666 10 10.6666Z" stroke="#4A545E" stroke-width="1.5"/>
<path d="M10 17.3333C9.63185 17.3333 9.33337 17.0348 9.33337 16.6666C9.33337 16.2984 9.63185 16 10 16C10.3682 16 10.6667 16.2984 10.6667 16.6666C10.6667 17.0348 10.3682 17.3333 10 17.3333Z" stroke="#4A545E" stroke-width="1.5"/>
</svg>
