<svg width="24" height="24" viewBox="0 0 24 24" fill="none" xmlns="http://www.w3.org/2000/svg">
<path d="M3.00105 22.2011L12 13.2021L20.999 22.2011L21.0343 22.2364L21.0697 22.2011L22.201 21.0697L22.2364 21.0344L22.201 20.999L13.2021 12L22.201 3.00108L22.2364 2.96572L22.201 2.93037L21.0697 1.799L21.0343 1.76364L20.999 1.799L12 10.798L3.00105 1.799L2.96569 1.76364L2.93034 1.799L1.79896 2.93037L1.76361 2.96572L1.79896 3.00108L10.7979 12L1.79896 20.999L1.76361 21.0344L1.79896 21.0697L2.93034 22.2011L2.96569 22.2364L3.00105 22.2011Z" fill="white" stroke="white" stroke-width="0.1"/>
</svg>
