<svg width="24" height="24" viewBox="0 0 24 24" fill="none" xmlns="http://www.w3.org/2000/svg">
<path d="M5.6 2.4V1H6V2.4V3.4H7H16.6H17.6V2.4V1H18V2.4V3.4H19H20.2C20.9677 3.4 21.6 4.03228 21.6 4.8V21.6C21.6 21.9777 21.4469 22.3227 21.2 22.5756V21.6V8.4V7.4H20.2H3.4H2.4V8.4V21.6V22.5802C2.15233 22.3274 2.00009 21.9812 2 21.6003C2 21.6002 2 21.6001 2 21.6L2.012 4.80071V4.8C2.012 4.02246 2.63006 3.4 3.4 3.4H4.6H5.6V2.4ZM20.2 22.6H21.1756C20.9227 22.8469 20.5777 23 20.2 23H3.4C3.01735 23 2.67185 22.8472 2.4198 22.6H3.4H20.2ZM12.8 18.2V14.2H16.8V18.2H12.8Z" fill="#7B8D9E" stroke="#7B8D9E" stroke-width="2"/>
</svg>
