<svg width="32" height="32" viewBox="0 0 32 32" fill="none" xmlns="http://www.w3.org/2000/svg">
<path d="M16.3793 8.03457V6.89668C16.3793 6.76793 16.389 6.64133 16.4069 6.51733H16.3793C15.961 6.51733 15.6207 6.8577 15.6207 7.27589C15.6206 7.6942 15.9609 8.03457 16.3793 8.03457V8.03457Z" fill="#E09F1F"/>
<path d="M7.27576 10.3103H11.0688V11.0689H7.27576V10.3103Z" fill="#E09F1F"/>
<path d="M17.882 11.0229C18.1301 10.9589 18.3577 10.8295 18.5437 10.6435L19.0341 10.1533L19.7927 10.9118L20.5512 10.1533L21.0417 10.6437C21.2277 10.8297 21.4552 10.959 21.7034 11.023C21.7474 10.3676 21.8934 9.72695 22.1389 9.11311L22.4478 8.34061V6.89657C22.4478 5.85076 21.5971 5 20.5513 5H19.034C17.9882 5 17.1375 5.85076 17.1375 6.89657V8.34077L17.4464 9.11296C17.692 9.72679 17.838 10.3675 17.882 11.0229H17.882Z" fill="#E09F1F"/>
<path d="M23.2067 8.03457C23.625 8.03457 23.9653 7.6942 23.9653 7.27601C23.9653 6.8577 23.6249 6.51746 23.2067 6.51746H23.1791C23.1969 6.64145 23.2067 6.7679 23.2067 6.8968V8.03457Z" fill="#E09F1F"/>
<path d="M6.13792 12.5861H12.2067C12.4158 12.5861 12.586 12.4159 12.586 12.2068L12.5859 9.17244C12.5859 8.96327 12.4157 8.79309 12.2065 8.79309H6.13777C5.92861 8.79309 5.75842 8.96327 5.75842 9.17244V12.2069C5.75842 12.4161 5.92861 12.5861 6.13777 12.5861L6.13792 12.5861ZM6.51727 9.55178H11.8274V11.8276H6.51727V9.55178Z" fill="#E09F1F"/>
<path d="M5 25.4825V26.9997H14.1637C14.1248 26.8862 14.1033 26.7645 14.1033 26.6379C14.1033 26.2624 14.2899 25.9139 14.6024 25.7057L14.9369 25.4827L5 25.4825Z" fill="#E09F1F"/>
<path d="M24.5624 26.3367L24.0313 25.9825C23.7675 25.8065 23.5879 25.5261 23.5385 25.2131L22.6541 19.6122C22.3104 19.9581 21.8347 20.1725 21.3098 20.1725C21.1344 20.1725 20.965 20.1478 20.8037 20.1031L22.237 26.4096C22.316 26.7573 22.6202 27 22.9768 27H24.3618C24.5613 27 24.7236 26.8377 24.7236 26.6382C24.7236 26.5168 24.6633 26.4042 24.5624 26.3368L24.5624 26.3367Z" fill="#E09F1F"/>
<path d="M16.9312 19.6122L16.0468 25.2131C15.9974 25.5261 15.8179 25.8065 15.5541 25.9824L15.0228 26.3365C14.9219 26.4038 14.8617 26.5164 14.8617 26.6376C14.8617 26.8371 15.0241 26.9996 15.2235 26.9996H16.6085C16.965 26.9996 17.2693 26.7569 17.3483 26.4091L18.7816 20.1027C18.6201 20.1475 18.4507 20.1722 18.2753 20.1722C17.7505 20.1722 17.2749 19.9578 16.9312 19.6121L16.9312 19.6122Z" fill="#E09F1F"/>
<path d="M26.6187 16.3279L25.9715 15.8964L23.9256 12.9737C23.5589 12.4496 23.015 12.0757 22.3944 11.9205L22.0175 11.8263C21.468 11.8139 20.9518 11.6024 20.5525 11.2253L19.793 11.9846L19.0337 11.2253C18.6344 11.6024 18.1182 11.8138 17.5686 11.8263L17.1917 11.9205C16.5712 12.0757 16.0273 12.4496 15.6605 12.9737L13.6146 15.8964L12.9675 16.3279C12.7289 16.4871 12.5863 16.7533 12.5863 17.0403C12.5862 17.5124 12.9703 17.8964 13.4423 17.8964C13.8806 17.8964 14.2608 17.5995 14.3672 17.1744L14.5234 16.5492L17.8965 13.6579V16.021C17.8965 16.314 17.8273 16.6072 17.6963 16.8692L17.2675 17.7269C17.1827 17.8963 17.1378 18.0861 17.1378 18.2756C17.1378 18.9031 17.6484 19.4135 18.2757 19.4135C18.9032 19.4135 19.4136 18.903 19.4136 18.2756V17.8963H20.1722V18.2756C20.1722 18.9031 20.6827 19.4135 21.3101 19.4135C21.9376 19.4135 22.448 18.903 22.448 18.2756C22.448 18.086 22.4032 17.8963 22.3185 17.7267L21.8897 16.869C21.7588 16.6072 21.6896 16.314 21.6896 16.021V13.6579L25.0627 16.5491L25.219 17.1743C25.3253 17.5993 25.7056 17.8963 26.1438 17.8963C26.6157 17.8964 26.9998 17.5123 26.9998 17.0403C26.9998 16.7535 26.8573 16.4871 26.6186 16.3279H26.6187Z" fill="#E09F1F"/>
<path d="M9.55164 13.3446H8.79297V18.1185L9.55164 17.36V13.3446Z" fill="#E09F1F"/>
<path d="M8.79297 24.724H9.55164V18.4329L8.79297 19.1915V24.724Z" fill="#E09F1F"/>
</svg>
