<svg width="24" height="32" viewBox="0 0 24 32" fill="none" xmlns="http://www.w3.org/2000/svg">
<path d="M14.5648 14.796L13.085 12.621L11.6222 15.8584C11.5403 16.0421 11.3824 16.151 11.2027 16.151L11.2008 16.1513C11.0211 16.1513 10.8634 16.0435 10.7813 15.8607L9.74579 13.606L9.12563 14.7523C9.0107 14.967 8.76107 15.1157 8.51741 15.1157H5.87835C5.66963 15.1157 5.50184 15.2845 5.50184 15.4922C5.50184 15.7 5.66964 15.8697 5.87835 15.8697H8.36683C9.10586 16.7034 10.2022 17.4585 11.7679 17.9987C13.7959 17.2997 15.0423 16.2442 15.7312 15.1158H15.1689C14.9414 15.1176 14.6917 14.9859 14.5648 14.796L14.5648 14.796Z" fill="#009DC7"/>
<path d="M18.1231 13.6197H16.3345C16.7251 11.7794 15.9013 10.0658 14.7759 9.66332C12.7559 8.9413 11.7682 10.7678 11.7682 10.7678C11.7682 10.7678 10.7816 8.94136 8.76043 9.66332C7.48333 10.1196 6.5956 12.2626 7.42425 14.3635H8.4798L9.35164 12.7499C9.44358 12.5791 9.60334 12.4793 9.78102 12.4853C9.95871 12.4913 10.1125 12.6003 10.1945 12.7779L11.199 14.9669L12.5991 11.8704C12.675 11.7006 12.8237 11.5898 12.9945 11.5748C13.1682 11.5569 13.3319 11.6438 13.4349 11.7985L15.1865 14.3727H18.1223C18.3289 14.3727 18.4988 14.2028 18.4988 13.9953C18.4985 13.7875 18.3298 13.6197 18.1232 13.6197L18.1231 13.6197Z" fill="#009DC7"/>
<path d="M21.9127 4.04421H17.6846L17.6849 3.23027C17.6849 2.59905 17.1716 2.08692 16.5404 2.08692H15.5499C14.856 0.842654 13.5278 0 12.002 0C10.4753 0 9.14709 0.842889 8.45202 2.08692H7.46155C6.82944 2.08692 6.31708 2.59928 6.31708 3.23027V4.04303L2.08715 4.04326C0.936682 4.04326 0.000229862 4.97995 0.000229862 6.13019L0 29.8681C0 31.0186 0.936689 31.955 2.08692 31.955H21.9128C23.0633 31.955 23.9998 31.0183 23.9998 29.8681L24 6.13078C24 4.97966 23.0633 4.04385 21.9128 4.04385L21.9127 4.04421ZM2.08739 29.8682V6.13084H6.31549V7.27025C6.31549 7.90236 6.82878 8.4136 7.45996 8.4136H16.5391C17.1712 8.4136 17.6836 7.90239 17.6836 7.27025L17.6831 6.13084H21.9112L21.9133 29.8682H2.08739Z" fill="#009DC7"/>
<path d="M13.5144 21.1635C13.5144 21.2863 13.4147 21.3863 13.2917 21.3863L4.96989 21.386C4.84715 21.386 4.74715 21.2863 4.74715 21.1633V20.2735C4.74715 20.1508 4.84691 20.0508 4.96989 20.0508H13.2923C13.415 20.0508 13.515 20.1505 13.515 20.2735L13.5144 21.1635Z" fill="#009DC7"/>
<path d="M17.0716 22.1062C16.83 22.1062 16.6052 21.9913 16.4514 21.7888L14.7198 19.5192L15.6735 18.7912L17.0306 20.5706L19.2485 16.9298L20.2721 17.5538L17.7347 21.7228C17.5938 21.9525 17.3683 22.0922 17.1106 22.1063C17.0966 22.1051 17.0856 22.1063 17.0716 22.1063L17.0716 22.1062Z" fill="#009DC7"/>
<path d="M13.5144 27.164C13.5144 27.2867 13.4147 27.3856 13.2917 27.3856L4.96989 27.3858C4.84715 27.3858 4.74715 27.2869 4.74715 27.1642V26.2735C4.74715 26.1507 4.84691 26.0507 4.96989 26.0507H13.2923C13.415 26.0507 13.515 26.1505 13.515 26.2735L13.5144 27.164Z" fill="#009DC7"/>
<path d="M17.0716 28.106C16.83 28.106 16.6052 27.9911 16.4514 27.7886L14.7198 25.5189L15.6735 24.791L17.0306 26.5694L19.2485 22.9287L20.2721 23.5527L17.7347 27.7228C17.5938 27.9516 17.3683 28.0922 17.1106 28.1062C17.0966 28.106 17.0856 28.106 17.0716 28.106L17.0716 28.106Z" fill="#009DC7"/>
</svg>
