<svg width="32" height="32" viewBox="0 0 32 32" fill="none" xmlns="http://www.w3.org/2000/svg">
<path d="M23.7898 21.1077C23.7588 21.1043 23.728 21.1001 23.6975 21.0951L23.5918 21.4036C23.175 22.6203 22.4377 23.8645 21.4848 24.8121C20.5341 25.7574 19.3262 26.4469 17.976 26.4469C16.3207 26.4469 14.88 25.414 13.8513 24.1233C12.8183 22.8274 12.1232 21.1797 11.9959 19.7635L11.9623 19.3899L12.3117 19.2532C12.6408 19.1244 12.9212 18.8249 13.0459 18.4234L13.1159 18.1978L13.3346 18.1086C14.6918 17.5553 16.0172 16.1624 17.0533 13.9954L23.7898 21.1077ZM23.7898 21.1077L23.7341 21.2824C23.4286 22.2414 22.9293 23.2098 22.2896 24.043C21.0214 25.6947 19.4819 26.5405 17.9763 26.5405C16.4703 26.5405 14.9309 25.6946 13.6624 24.0429C12.6528 22.7278 12.0018 21.0897 11.8966 19.695L11.8724 19.373L11.5689 19.2627C11.2182 19.1352 10.9194 18.8161 10.7985 18.3862L10.7345 18.1587L10.5182 18.0637C9.99384 17.8335 9.47141 17.4785 8.96982 16.9952C8.15982 16.2147 7.40524 15.1081 6.79964 13.7852L6.79959 13.7851C6.74627 13.6687 6.75177 13.5399 6.80616 13.4305L6.90586 13.2299L6.82253 13.0219C6.19455 11.455 5.8334 9.75826 5.8334 8.31238C5.8334 7.5193 5.85176 6.91973 5.9143 6.44653C5.97645 5.97635 6.07839 5.66493 6.22355 5.43171L23.7898 21.1077ZM16.8878 13.3778L16.9867 13.1374C17.6436 11.5394 18.0223 9.79426 18.0223 8.31219C18.0223 6.98245 17.9709 6.15639 17.7476 5.62101C17.6448 5.37453 17.5098 5.20387 17.3273 5.0755C17.1378 4.94219 16.8672 4.83374 16.4637 4.76356L16.2784 4.73136L16.1603 4.58509C16.1177 4.53231 16.0544 4.50006 15.9827 4.50006H14.4268C14.3024 4.50006 14.2014 4.59904 14.1982 4.72264C14.1982 4.72505 14.1982 4.7276 14.1982 4.73027C14.1989 4.85593 14.3011 4.9577 14.4268 4.9577H15.9827C16.0269 4.9577 16.0676 4.94525 16.1039 4.92243L16.2655 4.82066L16.4538 4.8526C16.7282 4.89913 16.9598 4.96861 17.1512 5.07794C17.355 5.19442 17.4905 5.34306 17.5859 5.50772L17.586 5.50792C17.759 5.80685 17.8347 6.20037 17.8759 6.63308C17.9183 7.07886 17.929 7.63804 17.929 8.31234C17.929 9.82454 17.5403 11.5639 16.887 13.1368L16.7954 13.3574L16.5663 13.4247C16.4562 13.4571 16.3631 13.5324 16.3115 13.6405L16.3114 13.6407C15.7483 14.8185 15.0799 15.7844 14.3553 16.4629C13.6345 17.1378 12.8192 17.5625 11.9758 17.5625C11.1117 17.5625 10.2705 17.104 9.53351 16.394C8.7903 15.678 8.10661 14.6643 7.54723 13.4427L7.54708 13.4423C7.48982 13.317 7.37695 13.2339 7.24791 13.2101L6.97519 13.1598L6.87347 12.9018C6.27861 11.3932 5.92684 9.75063 5.92684 8.31234C5.92684 7.65091 5.93891 7.08801 5.98543 6.63425C6.03041 6.19556 6.1132 5.78573 6.30289 5.48099L6.30295 5.48088C6.53297 5.11155 6.90696 4.92737 7.50431 4.83867L7.69704 4.81005L7.85832 4.91938C7.89393 4.94352 7.93694 4.95789 7.98561 4.95789H9.5415C9.66778 4.95789 9.76981 4.856 9.77023 4.7301V4.72897C9.77023 4.60244 9.66802 4.50023 9.5415 4.50023H7.98561C7.91764 4.50023 7.85724 4.52947 7.81482 4.57809L7.69335 4.71729L7.51055 4.74406C6.85507 4.84007 6.46662 5.04151 6.22361 5.43162L16.8878 13.3778ZM16.8878 13.3778L17.0278 13.5968M16.8878 13.3778L17.0278 13.5968M17.0278 13.5968C17.1029 13.7142 17.1162 13.8635 17.0534 13.9952L17.0278 13.5968ZM14.1971 4.69732L14.197 4.69615L14.197 4.69595C14.197 4.69594 14.197 4.69664 14.1971 4.69732Z" fill="#0E1012" stroke="#0E1012"/>
<path d="M24.532 19.9584C24.7356 19.8043 24.8676 19.5609 24.8676 19.2859C24.8677 19.0361 24.7593 18.8118 24.5871 18.6573L24.532 19.9584ZM24.532 19.9584C24.3906 20.0657 24.2145 20.1302 24.0233 20.1302C23.796 20.1302 23.5904 20.0398 23.4386 19.8939L23.7859 19.5342C23.7858 19.534 23.7857 19.5339 23.7855 19.5338M24.532 19.9584L23.7855 19.5338M23.7855 19.5338C23.8489 19.5946 23.9318 19.6302 24.0233 19.6302C24.1001 19.6302 24.171 19.6047 24.2298 19.5601L24.2302 19.5597C24.3153 19.4953 24.3676 19.3965 24.3676 19.2859V19.2857C24.3676 19.0957 24.2135 18.9415 24.0235 18.9415H24.0209C23.8323 18.9429 23.6794 19.0966 23.6794 19.2858C23.6794 19.382 23.7187 19.4691 23.7855 19.5338Z" fill="#0E1012" stroke="#0E1012"/>
</svg>
