<svg width="32" height="32" viewBox="0 0 32 32" fill="none" xmlns="http://www.w3.org/2000/svg">
<path d="M13.397 9.55655H7.93782L12.6399 4.77501C12.8587 4.55596 13.1152 4.37822 13.3969 4.25L13.397 9.55655ZM25.602 5.77279V26.2271C25.6033 26.6952 25.419 27.1448 25.0894 27.477C24.7596 27.8093 24.3116 27.9973 23.8435 28H8.75896C8.29087 27.9975 7.84271 27.8095 7.51289 27.4773C7.1833 27.1448 6.99878 26.6954 7.00001 26.2271V11.5928C7.00001 11.5264 7.01398 11.4632 7.01891 11.3978H14.3176V11.3976C14.5617 11.3978 14.7958 11.3008 14.9686 11.128C15.1412 10.9554 15.2382 10.7212 15.2382 10.4771V4H23.8436H23.8434C24.3115 4.00267 24.7594 4.19069 25.0892 4.52295C25.4188 4.85522 25.6031 5.3048 25.6019 5.77291L25.602 5.77279ZM17.0792 10.4771C17.079 10.7212 17.176 10.9555 17.3486 11.1281C17.5214 11.3009 17.7555 11.3979 17.9998 11.3977H20.7615C21.0903 11.3977 21.3941 11.2222 21.5585 10.9374C21.7231 10.6526 21.7231 10.3016 21.5585 10.0168C21.3941 9.73203 21.0902 9.55655 20.7615 9.55655H17.9998C17.7555 9.55655 17.5214 9.65354 17.3486 9.82614C17.176 9.99874 17.079 10.233 17.0792 10.4771ZM21.7018 21.5743C21.7032 21.3302 21.6077 21.0953 21.4361 20.9217C21.2643 20.7481 21.0307 20.6499 20.7865 20.6484L11.5609 20.5962C11.3148 20.5882 11.0762 20.6817 10.9011 20.8547C10.7261 21.0278 10.6297 21.2653 10.635 21.5114C10.6334 21.7555 10.7292 21.9904 10.9007 22.164C11.0723 22.3377 11.3059 22.4361 11.5501 22.4373L20.7757 22.4895H20.7812C21.0243 22.4895 21.2577 22.3931 21.4301 22.2218C21.6027 22.0504 21.7003 21.8176 21.7018 21.5743L21.7018 21.5743ZM21.7018 16.051C21.7032 15.8069 21.6077 15.572 21.4361 15.3984C21.2643 15.2247 21.0307 15.1265 20.7865 15.1251L11.5609 15.0729H11.5556C11.2266 15.0721 10.9223 15.2465 10.7569 15.5309C10.5917 15.8153 10.5906 16.166 10.7542 16.4515C10.9178 16.7367 11.2213 16.9132 11.55 16.914L20.7756 16.9662H20.7812C21.0243 16.9662 21.2577 16.8698 21.4301 16.6985C21.6027 16.5271 21.7003 16.2943 21.7017 16.051L21.7018 16.051Z" fill="#1C6BA4"/>
</svg>
