<svg width="20" height="20" viewBox="0 0 20 20" fill="none" xmlns="http://www.w3.org/2000/svg">
<path d="M4.00002 10C4.00002 10.3682 3.70154 10.6667 3.33335 10.6667C2.96516 10.6667 2.66669 10.3682 2.66669 10C2.66669 9.63185 2.96516 9.33337 3.33335 9.33337C3.70154 9.33337 4.00002 9.63185 4.00002 10Z" stroke="#1D1929" stroke-width="2"/>
<path d="M10.6667 10C10.6667 10.3682 10.3682 10.6667 10 10.6667C9.63183 10.6667 9.33335 10.3682 9.33335 10C9.33335 9.63185 9.63183 9.33337 10 9.33337C10.3682 9.33337 10.6667 9.63185 10.6667 10Z" stroke="#1D1929" stroke-width="2"/>
<path d="M17.3334 10C17.3334 10.3682 17.0349 10.6667 16.6667 10.6667C16.2985 10.6667 16 10.3682 16 10C16 9.63185 16.2985 9.33337 16.6667 9.33337C17.0349 9.33337 17.3334 9.63185 17.3334 10Z" stroke="#1D1929" stroke-width="2"/>
</svg>
