<svg width="16" height="16" viewBox="0 0 16 16" fill="none" xmlns="http://www.w3.org/2000/svg">
<path d="M3.19997 7.99999C3.19997 8.29454 2.96119 8.53332 2.66663 8.53332C2.37208 8.53332 2.1333 8.29454 2.1333 7.99999C2.1333 7.70544 2.37208 7.46666 2.66663 7.46666C2.96119 7.46666 3.19997 7.70544 3.19997 7.99999Z" stroke="#4A545E" stroke-width="1.5"/>
<path d="M8.5333 7.99999C8.5333 8.29454 8.29452 8.53332 7.99997 8.53332C7.70542 8.53332 7.46663 8.29454 7.46663 7.99999C7.46663 7.70544 7.70542 7.46666 7.99997 7.46666C8.29452 7.46666 8.5333 7.70544 8.5333 7.99999Z" stroke="#4A545E" stroke-width="1.5"/>
<path d="M13.8666 7.99999C13.8666 8.29454 13.6279 8.53333 13.3333 8.53333C13.0387 8.53333 12.8 8.29454 12.8 7.99999C12.8 7.70544 13.0387 7.46666 13.3333 7.46666C13.6279 7.46666 13.8666 7.70544 13.8666 7.99999Z" stroke="#4A545E" stroke-width="1.5"/>
</svg>
