<svg width="25" height="25" viewBox="0 0 25 25" fill="none" xmlns="http://www.w3.org/2000/svg">
<g clip-path="url(#clip0_102_203)">
<path d="M24.9983 9.88888H15.5816L19.3872 5.97222C15.5955 2.22222 9.45663 2.08333 5.66497 5.83333C1.87331 9.59721 1.87331 15.6666 5.66497 19.4305C9.45663 23.1944 15.5955 23.1944 19.3872 19.4305C21.2761 17.5694 22.2205 15.3889 22.2205 12.6389H24.9983C24.9983 15.3889 23.7761 18.9583 21.3316 21.375C16.4566 26.2083 8.53997 26.2083 3.66497 21.375C-1.19613 16.5555 -1.2378 8.72221 3.6372 3.90277C8.51219 -0.916666 16.3316 -0.916666 21.2066 3.90277L24.9983 0V9.88888ZM13.1927 6.94444V12.8472L18.0538 15.7361L17.0538 17.4166L11.1094 13.8889V6.94444H13.1927Z" fill="#9D4C6C"/>
</g>
<defs>
<clipPath id="clip0_102_203">
<rect width="24.8889" height="24.8889" fill="white" transform="scale(1.00446)"/>
</clipPath>
</defs>
</svg>
