<svg width="20" height="20" viewBox="0 0 20 20" fill="none" xmlns="http://www.w3.org/2000/svg">
<path d="M3.99996 9.61094C3.99996 9.96481 3.70148 10.2517 3.33329 10.2517C2.9651 10.2517 2.66663 9.96481 2.66663 9.61094C2.66663 9.25708 2.9651 8.97021 3.33329 8.97021C3.70148 8.97021 3.99996 9.25708 3.99996 9.61094Z" stroke="#0C1115" stroke-opacity="0.62" stroke-width="2"/>
<path d="M10.6666 9.61094C10.6666 9.96481 10.3681 10.2517 9.99996 10.2517C9.63177 10.2517 9.33329 9.96481 9.33329 9.61094C9.33329 9.25708 9.63177 8.97021 9.99996 8.97021C10.3681 8.97021 10.6666 9.25708 10.6666 9.61094Z" stroke="#0C1115" stroke-opacity="0.62" stroke-width="2"/>
<path d="M17.3333 9.61094C17.3333 9.96481 17.0348 10.2517 16.6666 10.2517C16.2984 10.2517 16 9.96481 16 9.61094C16 9.25708 16.2984 8.97021 16.6666 8.97021C17.0348 8.97021 17.3333 9.25708 17.3333 9.61094Z" stroke="#0C1115" stroke-opacity="0.62" stroke-width="2"/>
</svg>
