<svg width="32" height="32" viewBox="0 0 32 32" fill="none" xmlns="http://www.w3.org/2000/svg">
<path d="M19.0509 16.9327V16.9827H19.1009H27.7294H27.7296H27.7796L27.7796 16.9327L27.7794 8.31422C27.7794 5.90787 25.8215 3.94994 23.4151 3.94994C21.0088 3.94994 19.0509 5.90787 19.0509 8.31422V16.9327ZM26.8182 16.0217H20.0117L20.0116 8.31395C20.0116 6.43693 21.5383 4.91056 23.415 4.91056C25.2918 4.91056 26.8182 6.4371 26.8182 8.31395V16.0217Z" fill="#0E1012" stroke="#0E1012" stroke-width="0.1"/>
<path d="M16.254 25.5887L16.301 25.6058L16.3181 25.5588L19.2691 17.4503L19.2862 17.4033L19.2393 17.3862L11.1392 14.4396L11.1391 14.4396C10.6579 14.2646 10.156 14.1752 9.64723 14.1752C7.81832 14.1752 6.17079 15.3301 5.54647 17.0495C4.72403 19.3104 5.89453 21.8198 8.1553 22.6422L16.254 25.5887ZM9.64713 15.1368H9.67797C10.0633 15.1404 10.444 15.2097 10.8104 15.343L18.0544 17.9778L15.7269 24.3744L8.48389 21.7395C7.62956 21.4286 6.94777 20.8042 6.56391 19.9804L6.5639 19.9803C6.17933 19.1565 6.13868 18.2329 6.44933 17.3782L6.44933 17.3782C6.93642 16.0376 8.2221 15.1368 9.64713 15.1368ZM6.40234 17.3611C6.08716 18.2283 6.12841 19.1656 6.51859 20.0015L6.40234 17.3611Z" fill="#0E1012" stroke="#0E1012" stroke-width="0.1"/>
<path d="M20.7209 19.4628C20.7209 20.1429 21.2747 20.6966 21.9548 20.6966C22.6348 20.6966 23.1886 20.1431 23.1886 19.4628C23.1886 18.7826 22.6349 18.229 21.9548 18.229C21.2747 18.229 20.7209 18.7826 20.7209 19.4628ZM21.6819 19.463C21.6819 19.3122 21.8042 19.1901 21.9548 19.1901C22.1054 19.1901 22.2277 19.3121 22.2277 19.463C22.2277 19.6138 22.1056 19.7358 21.9548 19.7358C21.804 19.7358 21.6819 19.6138 21.6819 19.463Z" fill="#0E1012" stroke="#0E1012" stroke-width="0.1"/>
<path d="M26.7475 21.221V21.2211C26.7475 21.5094 26.5125 21.7445 26.2241 21.7445C25.9347 21.7445 25.6998 21.5093 25.6998 21.2211C25.6998 20.9317 25.9347 20.6966 26.2241 20.6966C26.5128 20.6966 26.7478 20.9318 26.7475 21.221ZM24.7389 21.2211C24.7389 22.04 25.4054 22.7057 26.2241 22.7057C27.0431 22.7057 27.7087 22.0398 27.7087 21.2211C27.7087 20.4024 27.043 19.7357 26.2241 19.7357C25.4055 19.7357 24.7389 20.4022 24.7389 21.2211Z" fill="#0E1012" stroke="#0E1012" stroke-width="0.1"/>
<path d="M21.9405 23.5066C21.9405 24.0452 22.379 24.4831 22.918 24.4831C23.4564 24.4831 23.8951 24.0452 23.8951 23.5066C23.8951 22.9669 23.4566 22.5281 22.918 22.5281C22.3789 22.5281 21.9405 22.9671 21.9405 23.5066Z" fill="#0E1012" stroke="#0E1012" stroke-width="0.1"/>
<path d="M18.639 22.8658C18.639 23.4838 19.1416 23.9861 19.7596 23.9861C20.3777 23.9861 20.8812 23.4838 20.8812 22.8658C20.8812 22.2478 20.3777 21.7444 19.7596 21.7444C19.1416 21.7444 18.639 22.2479 18.639 22.8658ZM19.6005 22.8658C19.6005 22.777 19.6723 22.7056 19.7596 22.7056C19.8482 22.7056 19.9201 22.7773 19.9201 22.8658C19.9201 22.9058 19.9027 22.9345 19.875 22.9548C19.8459 22.9761 19.8043 22.9885 19.7602 22.9886C19.7161 22.9887 19.6746 22.9765 19.6456 22.9553C19.618 22.9351 19.6005 22.9063 19.6005 22.8658Z" fill="#0E1012" stroke="#0E1012" stroke-width="0.1"/>
<path d="M22.4374 27.57C22.4374 28.4883 23.1839 29.2346 24.102 29.2346C25.0201 29.2346 25.7663 28.4883 25.7663 27.57C25.7663 26.6519 25.0201 25.9057 24.102 25.9057C23.1837 25.9057 22.4374 26.6519 22.4374 27.57ZM23.3988 27.57C23.3988 27.1822 23.7144 26.8668 24.102 26.8668C24.4896 26.8668 24.8052 27.1824 24.8052 27.57C24.8052 27.9578 24.4896 28.2732 24.102 28.2732C23.7142 28.2732 23.3988 27.9576 23.3988 27.57Z" fill="#0E1012" stroke="#0E1012" stroke-width="0.1"/>
</svg>
