<svg width="32" height="32" viewBox="0 0 32 32" fill="none" xmlns="http://www.w3.org/2000/svg">
<path d="M20.4464 10.9885L20.2274 11.4375L20.8235 11.5887C21.5747 11.7792 22.2413 12.2147 22.7174 12.8262L22.7174 12.8263C23.1938 13.4379 23.4527 14.1905 23.4535 14.9658V23.0527C23.4535 23.9775 23.0862 24.8645 22.4321 25.5184L22.432 25.5185C21.778 26.1725 20.8911 26.54 19.9662 26.54H13.3206C12.3957 26.54 11.5088 26.1725 10.8548 25.5185L10.8548 25.5184C10.2006 24.8645 9.83331 23.9775 9.83331 23.0527V14.9655C9.8342 14.1904 10.0931 13.4378 10.5694 12.8263L10.5695 12.8262C11.0456 12.2146 11.712 11.7792 12.4633 11.5887L12.8404 11.493V11.104V9.40277V8.96658L12.4083 8.9074C11.9711 8.84753 11.5705 8.6315 11.2805 8.29933C10.9905 7.96707 10.8304 7.54104 10.8302 7.10027C10.8302 7.1002 10.8302 7.10013 10.8302 7.10006V6.32588C10.8302 5.84165 11.0225 5.37714 11.3649 5.03474C11.3649 5.03474 11.3649 5.03473 11.3649 5.03472L20.4464 10.9885ZM20.4464 10.9885V9.40271V8.9664L20.8787 8.90732C21.3152 8.84767 21.7153 8.63195 22.0054 8.30017L22.0054 8.30016C22.2953 7.96858 22.4556 7.54337 22.4566 7.10288C22.4566 7.10273 22.4566 7.10259 22.4566 7.10244L22.4566 6.32588C22.4566 5.84167 22.2643 5.37716 21.9219 5.03472L20.4464 10.9885ZM20.1174 9.44259V8.9437L19.6186 8.94259L13.6708 8.92936L13.1697 8.92824V9.42935V10.9943V11.4943H13.6697H19.6174H20.1174V10.9943V9.44259ZM11.1594 7.10347V7.27818L11.1721 7.29408C11.2147 7.62041 11.3641 7.92547 11.5995 8.16027L11.5997 8.16047C11.8803 8.44001 12.2603 8.59692 12.6563 8.59692H20.6309C21.0279 8.59692 21.4087 8.43932 21.6893 8.15867C21.9701 7.87787 22.1278 7.49713 22.1278 7.10027V6.32588C22.1278 5.92901 21.9701 5.54827 21.6893 5.26749L21.3358 5.62104L21.6893 5.26749C21.4089 4.98703 21.0282 4.829 20.6309 4.829H12.6563C12.259 4.829 11.8783 4.98704 11.5979 5.26749C11.3171 5.54828 11.1594 5.92902 11.1594 6.32588V7.10347ZM22.1996 25.2858L22.1996 25.2858C22.7916 24.6937 23.1246 23.8903 23.1246 23.0528V14.9654C23.1246 14.1276 22.7916 13.3244 22.1997 12.7322L22.1996 12.7321C21.6072 12.1398 20.8039 11.8071 19.9663 11.8071H13.3207C12.4831 11.8071 11.6798 12.1398 11.0874 12.7321L11.0873 12.7322C10.4954 13.3245 10.1625 14.1276 10.1625 14.9654V23.0528C10.1625 23.8903 10.4954 24.6938 11.0874 25.2858L11.0875 25.2859C11.6797 25.8781 12.4829 26.2111 13.3207 26.2111H19.9663C20.804 26.2111 21.6073 25.8781 22.1996 25.2858Z" fill="#0E1012" stroke="#0E1012"/>
<path d="M15.979 18.8449H16.479V18.3449V16.5188H16.8079V18.3449V18.8449H17.3079H19.1338V19.1739H17.3079H16.8079V19.6739V21.4998H16.479V19.6739V19.1739H15.979H14.1531V18.8449H15.979Z" fill="#0E1012" stroke="#0E1012"/>
</svg>
